<svg width="250" height="250" viewBox="0 0 250 250" fill="none" xmlns="http://www.w3.org/2000/svg">
<path d="M250 125C250 194.036 194.036 250 125 250C55.9644 250 0 194.036 0 125C0 55.9644 55.9644 0 125 0C194.036 0 250 55.9644 250 125Z" fill="url(#paint0_radial_1_46)"/>
<path d="M138.524 83.016C140.486 83.016 142.364 83.784 144.156 85.32C145.948 86.7707 146.844 88.776 146.844 91.336C146.844 92.104 146.716 92.9573 146.46 93.896L121.244 168.136C120.732 169.672 119.793 170.867 118.428 171.72C117.148 172.488 115.782 172.915 114.332 173C112.881 173 111.43 172.573 109.98 171.72C108.614 170.867 107.548 169.629 106.78 168.008L87.8355 125L88.9875 125.768L70.2995 168.008C69.5315 169.629 68.4222 170.867 66.9715 171.72C65.6062 172.573 64.1982 173 62.7475 173C61.3822 172.915 60.0168 172.488 58.6515 171.72C57.2862 170.867 56.3475 169.672 55.8355 168.136L30.6195 93.896C30.3635 92.9573 30.2355 92.104 30.2355 91.336C30.2355 88.776 31.1315 86.7707 32.9235 85.32C34.8008 83.784 36.7208 83.016 38.6835 83.016C40.3048 83.016 41.7982 83.4427 43.1635 84.296C44.6142 85.1493 45.5955 86.3867 46.1075 88.008L66.4595 149.704L63.6435 149.576L81.8195 105.928C82.5022 104.392 83.4835 103.197 84.7635 102.344C86.0435 101.405 87.4942 100.979 89.1155 101.064C90.7368 100.979 92.1875 101.405 93.4675 102.344C94.7475 103.197 95.6862 104.392 96.2835 105.928L112.924 147.656L110.876 148.936L130.972 88.008C131.484 86.3867 132.465 85.1493 133.916 84.296C135.366 83.4427 136.902 83.016 138.524 83.016Z" fill="#FAFAFA"/>
<path d="M166.602 173C164.212 173 162.25 172.275 160.714 170.824C159.263 169.288 158.538 167.411 158.538 165.192V91.208C158.538 88.9893 159.263 87.1547 160.714 85.704C162.25 84.168 164.127 83.4 166.346 83.4H207.946C210.164 83.4 211.999 84.1253 213.45 85.576C214.986 86.9413 215.754 88.7333 215.754 90.952C215.754 92.8293 214.986 94.4933 213.45 95.944C211.999 97.3947 210.164 98.12 207.946 98.12H173.385L174.538 96.584V122.312L173.641 120.648H202.186C204.404 120.648 206.239 121.373 207.689 122.824C209.225 124.189 209.993 125.981 209.993 128.2C209.993 130.077 209.225 131.741 207.689 133.192C206.239 134.643 204.404 135.368 202.186 135.368H173.385L174.538 134.216V165.192C174.538 167.411 173.727 169.288 172.105 170.824C170.569 172.275 168.735 173 166.602 173Z" fill="#FAFAFA"/>
<defs>
<radialGradient id="paint0_radial_1_46" cx="0" cy="0" r="1" gradientUnits="userSpaceOnUse" gradientTransform="rotate(45) scale(353.553)">
<stop stop-color="#F83D60"/>
<stop offset="1" stop-color="#4F46E5"/>
</radialGradient>
</defs>
</svg>
